<svg width="3474" height="2345" xmlns="http://www.w3.org/2000/svg" xmlns:xlink="http://www.w3.org/1999/xlink" xml:space="preserve" overflow="hidden"><g transform="translate(-53 -76)"><path d="M53.9559 76.4677 2174.46 76.4677 2174.46 2420.99 53.9559 2420.99Z" fill="#FFFFFF" fill-rule="evenodd"/><path d="M2174.46 76.4677 3526.66 76.4677 3526.66 1031.25 2174.46 1031.25Z" fill="#FFFFFF" fill-rule="evenodd"/><path d="M2174.46 1031.25 3526.66 1031.25 3526.66 1793.99 2174.46 1793.99Z" fill="#FFFFFF" fill-rule="evenodd"/><path d="M2174.46 1793.99 3526.66 1793.99 3526.66 2420.99 2174.46 2420.99Z" fill="#FFFFFF" fill-rule="evenodd"/><g><text font-family="Wingdings,Wingdings_MSFontService,sans-serif" font-weight="400" font-size="73" transform="matrix(1 0 0 1 2207.46 1958)"></text></g><text fill="#093C92" font-family="Times New Roman,Times New Roman_MSFontService,sans-serif" font-weight="700" font-size="73" transform="matrix(1 0 0 1 2310.59 1958)">Mulberry Leaf Disease Detection.</text><g><text font-family="Wingdings,Wingdings_MSFontService,sans-serif" font-weight="400" font-size="73" transform="matrix(1 0 0 1 2207.46 2046)"></text></g><text fill="#093C92" font-family="Times New Roman,Times New Roman_MSFontService,sans-serif" font-weight="700" font-size="73" transform="matrix(1 0 0 1 2310.59 2046)">Modified MobileNetV3Small.</text><g><text font-family="Wingdings,Wingdings_MSFontService,sans-serif" font-weight="400" font-size="73" transform="matrix(1 0 0 1 2207.46 2134)"></text></g><text fill="#093C92" font-family="Times New Roman,Times New Roman_MSFontService,sans-serif" font-weight="700" font-size="73" transform="matrix(1 0 0 1 2310.59 2134)">Interpretability using Grad</text><text fill="#093C92" font-family="Times New Roman,Times New Roman_MSFontService,sans-serif" font-weight="700" font-size="73" transform="matrix(1 0 0 1 3172.26 2134)">-</text><text fill="#093C92" font-family="Times New Roman,Times New Roman_MSFontService,sans-serif" font-weight="700" font-size="73" transform="matrix(1 0 0 1 3196.89 2134)">CAM </text><text fill="#093C92" font-family="Times New Roman,Times New Roman_MSFontService,sans-serif" font-weight="700" font-size="73" transform="matrix(1 0 0 1 2310.59 2222)">Visualization.</text><g><text font-family="Wingdings,Wingdings_MSFontService,sans-serif" font-weight="400" font-size="73" transform="matrix(1 0 0 1 2207.46 2310)"></text></g><text fill="#093C92" font-family="Times New Roman,Times New Roman_MSFontService,sans-serif" font-weight="700" font-size="73" transform="matrix(1 0 0 1 2310.59 2310)">AI</text><text fill="#093C92" font-family="Times New Roman,Times New Roman_MSFontService,sans-serif" font-weight="700" font-size="73" transform="matrix(1 0 0 1 2391.94 2310)">-</text><text fill="#093C92" font-family="Times New Roman,Times New Roman_MSFontService,sans-serif" font-weight="700" font-size="73" transform="matrix(1 0 0 1 2416.58 2310)">enabled Mobile Application.</text></g></svg>